<svg xmlns="http://www.w3.org/2000/svg" viewBox="-102.09410546422396 -101.38204604696057 205.22615151118458 235.19639351541628">
<rect x="-102.09410546422396" y="-101.38204604696057" width="205.22615151118458" height="235.19639351541628" fill="white"/>
<polyline points="1.750,-0.000 0.000,-0.000 -1.750,-0.000 -3.671,-0.000 -5.591,-0.000 -7.512,-0.000 -9.432,-0.000 -11.353,-0.000 -13.273,-0.000 -15.194,-0.000 -17.114,-0.000 -19.035,-0.000 -20.955,-0.000 -22.876,-0.000 -24.796,-0.000 -26.717,-0.000 -28.637,-0.000 -30.558,-0.000 -32.478,-0.000 -34.399,-0.000 -36.319,-0.000 -38.240,-0.000 -40.160,-0.000 -42.081,-0.000 -44.002,-0.000 -45.922,-0.000 -47.904,-0.044 -49.882,-0.178 -51.851,-0.400 -53.809,-0.710 -55.751,-1.107 -57.673,-1.592 -59.572,-2.162 -61.443,-2.817 -63.283,-3.555 -65.088,-4.374 -66.854,-5.274 -68.578,-6.253 -70.256,-7.307 -71.886,-8.436 -73.463,-9.637 -74.985,-10.907 -76.448,-12.245 -77.849,-13.646 -79.187,-15.110 -80.457,-16.631 -81.658,-18.208 -82.787,-19.838 -83.841,-21.516 -84.820,-23.240 -85.720,-25.007 -86.539,-26.811 -87.277,-28.651 -87.932,-30.522 -88.502,-32.421 -88.987,-34.343 -89.384,-36.285 -89.694,-38.243 -89.916,-40.213 -90.050,-42.190 -90.094,-44.172 -90.050,-46.154 -89.916,-48.132 -89.694,-50.101 -89.384,-52.059 -88.987,-54.001 -88.502,-55.923 -87.932,-57.822 -87.277,-59.693 -86.539,-61.533 -85.720,-63.338 -84.820,-65.104 -83.841,-66.828 -82.787,-68.506 -81.658,-70.136 -80.457,-71.713 -79.187,-73.235 -77.849,-74.698 -76.448,-76.099 -74.985,-77.437 -73.463,-78.707 -71.886,-79.908 -70.256,-81.037 -68.578,-82.091 -66.854,-83.070 -65.088,-83.970 -63.283,-84.789 -61.443,-85.527 -59.572,-86.182 -57.673,-86.752 -55.751,-87.237 -53.809,-87.634 -51.851,-87.944 -49.882,-88.166 -47.904,-88.300 -45.922,-88.344 -43.940,-88.300 -41.963,-88.166 -39.993,-87.944 -38.035,-87.634 -36.093,-87.237 -34.171,-86.752 -32.272,-86.182 -30.401,-85.527 -28.561,-84.789 -26.757,-83.970 -24.990,-83.070 -23.266,-82.091 -21.588,-81.037 -19.958,-79.908 -18.381,-78.707 -16.860,-77.437 -15.396,-76.099 -13.995,-74.698 -12.657,-73.235 -11.387,-71.713 -10.186,-70.136 -9.057,-68.506 -8.003,-66.828 -7.024,-65.104 -6.124,-63.338 -5.305,-61.533 -4.567,-59.693 -3.912,-57.822 -3.342,-55.923 -2.857,-54.001 -2.460,-52.059 -2.150,-50.101 -1.928,-48.132 -1.794,-46.154 -1.750,-44.172 -1.750,-42.252 -1.750,-40.331 -1.750,-38.410 -1.750,-36.490 -1.750,-34.569 -1.750,-32.649 -1.750,-30.728 -1.750,-28.808 -1.750,-26.887 -1.750,-24.967 -1.750,-23.046 -1.750,-21.126 -1.750,-19.205 -1.750,-17.285 -1.750,-15.364 -1.750,-13.444 -1.750,-11.523 -1.750,-9.603 -1.750,-7.682 -1.750,-5.762 -1.750,-3.841 -1.750,-1.921 -1.750,0.000" fill="none" stroke="#e7ecef" stroke-width="3.5"/>
<polyline points="1.750,-0.000 0.000,-0.000 -1.750,-0.000 -3.671,-0.000 -5.591,-0.000 -7.512,-0.000 -9.432,-0.000 -11.353,-0.000 -13.273,-0.000 -15.194,-0.000 -17.114,-0.000 -19.035,-0.000 -20.955,-0.000 -22.876,-0.000 -24.796,-0.000 -26.717,-0.000 -28.637,-0.000 -30.558,-0.000 -32.478,-0.000 -34.399,-0.000 -36.319,-0.000 -38.240,-0.000 -40.160,-0.000 -42.081,-0.000 -44.002,-0.000 -45.922,-0.000 -47.904,-0.044 -49.882,-0.178 -51.851,-0.400 -53.809,-0.710 -55.751,-1.107 -57.673,-1.592 -59.572,-2.162 -61.443,-2.817 -63.283,-3.555 -65.088,-4.374 -66.854,-5.274 -68.578,-6.253 -70.256,-7.307 -71.886,-8.436 -73.463,-9.637 -74.985,-10.907 -76.448,-12.245 -77.849,-13.646 -79.187,-15.110 -80.457,-16.631 -81.658,-18.208 -82.787,-19.838 -83.841,-21.516 -84.820,-23.240 -85.720,-25.007 -86.539,-26.811 -87.277,-28.651 -87.932,-30.522 -88.502,-32.421 -88.987,-34.343 -89.384,-36.285 -89.694,-38.243 -89.916,-40.213 -90.050,-42.190 -90.094,-44.172 -90.050,-46.154 -89.916,-48.132 -89.694,-50.101 -89.384,-52.059 -88.987,-54.001 -88.502,-55.923 -87.932,-57.822 -87.277,-59.693 -86.539,-61.533 -85.720,-63.338 -84.820,-65.104 -83.841,-66.828 -82.787,-68.506 -81.658,-70.136 -80.457,-71.713 -79.187,-73.235 -77.849,-74.698 -76.448,-76.099 -74.985,-77.437 -73.463,-78.707 -71.886,-79.908 -70.256,-81.037 -68.578,-82.091 -66.854,-83.070 -65.088,-83.970 -63.283,-84.789 -61.443,-85.527 -59.572,-86.182 -57.673,-86.752 -55.751,-87.237 -53.809,-87.634 -51.851,-87.944 -49.882,-88.166 -47.904,-88.300 -45.922,-88.344 -43.940,-88.300 -41.963,-88.166 -39.993,-87.944 -38.035,-87.634 -36.093,-87.237 -34.171,-86.752 -32.272,-86.182 -30.401,-85.527 -28.561,-84.789 -26.757,-83.970 -24.990,-83.070 -23.266,-82.091 -21.588,-81.037 -19.958,-79.908 -18.381,-78.707 -16.860,-77.437 -15.396,-76.099 -13.995,-74.698 -12.657,-73.235 -11.387,-71.713 -10.186,-70.136 -9.057,-68.506 -8.003,-66.828 -7.024,-65.104 -6.124,-63.338 -5.305,-61.533 -4.567,-59.693 -3.912,-57.822 -3.342,-55.923 -2.857,-54.001 -2.460,-52.059 -2.150,-50.101 -1.928,-48.132 -1.794,-46.154 -1.750,-44.172 -1.750,-42.252 -1.750,-40.331 -1.750,-38.410 -1.750,-36.490 -1.750,-34.569 -1.750,-32.649 -1.750,-30.728 -1.750,-28.808 -1.750,-26.887 -1.750,-24.967 -1.750,-23.046 -1.750,-21.126 -1.750,-19.205 -1.750,-17.285 -1.750,-15.364 -1.750,-13.444 -1.750,-11.523 -1.750,-9.603 -1.750,-7.682 -1.750,-5.762 -1.750,-3.841 -1.750,-1.921 -1.750,0.000" fill="none" stroke="#b67615" stroke-width="0.8"/>
<polyline points="-1.750,0.000 -1.750,1.974 -1.750,3.947 -1.750,5.921 -1.750,7.895 -1.750,9.869 -1.750,11.842 -1.750,13.816 -1.750,15.790 -1.750,17.764 -1.750,19.737 -1.750,21.711 -1.750,23.685 -1.750,25.658 -1.750,27.632 -1.750,29.606 -1.750,31.580 -1.750,33.553 -1.750,35.527 -1.750,37.501 -1.813,39.481 -2.001,41.453 -2.314,43.410 -2.750,45.342 -3.308,47.244 -3.985,49.106 -4.778,50.921 -5.685,52.682 -6.702,54.383 -7.825,56.015 -9.049,57.573 -10.369,59.051 -11.780,60.442 -13.276,61.740 -14.852,62.941 -16.500,64.040 -18.160,65.147 -19.745,66.357 -21.250,67.666 -22.669,69.068 -23.995,70.558 -25.223,72.130 -26.349,73.776 -27.367,75.491 -28.274,77.268 -29.065,79.099 -29.738,80.976 -30.291,82.893 -30.719,84.841 -31.023,86.812 -31.200,88.799 -31.250,90.793 -31.173,92.786 -30.968,94.770 -30.638,96.737 -30.183,98.679 -29.605,100.588 -28.906,102.456 -28.089,104.276 -27.159,106.040 -26.117,107.741 -24.969,109.372 -23.719,110.926 -22.373,112.398 -20.936,113.781 -19.413,115.069 -17.811,116.258 -16.137,117.342 -14.397,118.317 -12.598,119.178 -10.748,119.924 -8.854,120.550 -6.924,121.054 -4.966,121.433 -2.988,121.687 -0.997,121.814 0.997,121.814 2.988,121.687 4.966,121.433 6.924,121.054 8.854,120.550 10.748,119.924 12.598,119.178 14.397,118.317 16.137,117.342 17.811,116.258 19.413,115.069 20.936,113.781 22.373,112.398 23.719,110.926 24.969,109.372 26.117,107.741 27.159,106.040 28.089,104.276 28.906,102.456 29.605,100.588 30.183,98.679 30.638,96.737 30.968,94.770 31.173,92.786 31.250,90.793 31.200,88.799 31.023,86.812 30.719,84.841 30.291,82.893 29.738,80.976 29.065,79.099 28.274,77.268 27.367,75.491 26.349,73.776 25.223,72.130 23.995,70.558 22.669,69.068 21.250,67.666 19.745,66.357 18.160,65.147 16.500,64.040 14.852,62.941 13.276,61.740 11.780,60.442 10.369,59.051 9.049,57.573 7.825,56.015 6.702,54.383 5.685,52.682 4.778,50.921 3.985,49.106 3.308,47.244 2.750,45.342 2.314,43.410 2.001,41.453 1.813,39.481 1.750,37.501 1.750,35.527 1.750,33.553 1.750,31.580 1.750,29.606 1.750,27.632 1.750,25.658 1.750,23.685 1.750,21.711 1.750,19.737 1.750,17.764 1.750,15.790 1.750,13.816 1.750,11.842 1.750,9.869 1.750,7.895 1.750,5.921 1.750,3.947 1.750,1.974 1.750,0.000" fill="none" stroke="#e7ecef" stroke-width="3.5"/>
<polyline points="-1.750,0.000 -1.750,1.974 -1.750,3.947 -1.750,5.921 -1.750,7.895 -1.750,9.869 -1.750,11.842 -1.750,13.816 -1.750,15.790 -1.750,17.764 -1.750,19.737 -1.750,21.711 -1.750,23.685 -1.750,25.658 -1.750,27.632 -1.750,29.606 -1.750,31.580 -1.750,33.553 -1.750,35.527 -1.750,37.501 -1.813,39.481 -2.001,41.453 -2.314,43.410 -2.750,45.342 -3.308,47.244 -3.985,49.106 -4.778,50.921 -5.685,52.682 -6.702,54.383 -7.825,56.015 -9.049,57.573 -10.369,59.051 -11.780,60.442 -13.276,61.740 -14.852,62.941 -16.500,64.040 -18.160,65.147 -19.745,66.357 -21.250,67.666 -22.669,69.068 -23.995,70.558 -25.223,72.130 -26.349,73.776 -27.367,75.491 -28.274,77.268 -29.065,79.099 -29.738,80.976 -30.291,82.893 -30.719,84.841 -31.023,86.812 -31.200,88.799 -31.250,90.793 -31.173,92.786 -30.968,94.770 -30.638,96.737 -30.183,98.679 -29.605,100.588 -28.906,102.456 -28.089,104.276 -27.159,106.040 -26.117,107.741 -24.969,109.372 -23.719,110.926 -22.373,112.398 -20.936,113.781 -19.413,115.069 -17.811,116.258 -16.137,117.342 -14.397,118.317 -12.598,119.178 -10.748,119.924 -8.854,120.550 -6.924,121.054 -4.966,121.433 -2.988,121.687 -0.997,121.814 0.997,121.814 2.988,121.687 4.966,121.433 6.924,121.054 8.854,120.550 10.748,119.924 12.598,119.178 14.397,118.317 16.137,117.342 17.811,116.258 19.413,115.069 20.936,113.781 22.373,112.398 23.719,110.926 24.969,109.372 26.117,107.741 27.159,106.040 28.089,104.276 28.906,102.456 29.605,100.588 30.183,98.679 30.638,96.737 30.968,94.770 31.173,92.786 31.250,90.793 31.200,88.799 31.023,86.812 30.719,84.841 30.291,82.893 29.738,80.976 29.065,79.099 28.274,77.268 27.367,75.491 26.349,73.776 25.223,72.130 23.995,70.558 22.669,69.068 21.250,67.666 19.745,66.357 18.160,65.147 16.500,64.040 14.852,62.941 13.276,61.740 11.780,60.442 10.369,59.051 9.049,57.573 7.825,56.015 6.702,54.383 5.685,52.682 4.778,50.921 3.985,49.106 3.308,47.244 2.750,45.342 2.314,43.410 2.001,41.453 1.813,39.481 1.750,37.501 1.750,35.527 1.750,33.553 1.750,31.580 1.750,29.606 1.750,27.632 1.750,25.658 1.750,23.685 1.750,21.711 1.750,19.737 1.750,17.764 1.750,15.790 1.750,13.816 1.750,11.842 1.750,9.869 1.750,7.895 1.750,5.921 1.750,3.947 1.750,1.974 1.750,0.000" fill="none" stroke="#007e87" stroke-width="0.8"/>
<polyline points="1.750,0.000 1.750,-1.943 1.750,-3.886 1.750,-5.830 1.750,-7.773 1.750,-9.716 1.750,-11.659 1.750,-13.602 1.750,-15.546 1.750,-17.489 1.750,-19.432 1.750,-21.375 1.750,-23.318 1.750,-25.262 1.750,-27.205 1.750,-29.148 1.750,-31.091 1.750,-33.034 1.750,-34.978 1.750,-36.921 1.750,-38.864 1.750,-40.807 1.750,-42.750 1.750,-44.693 1.794,-46.680 1.927,-48.662 2.147,-50.637 2.455,-52.599 2.850,-54.546 3.331,-56.474 3.897,-58.378 4.547,-60.256 5.280,-62.102 6.094,-63.915 6.988,-65.689 7.960,-67.422 9.009,-69.109 10.131,-70.749 11.324,-72.337 12.588,-73.870 13.918,-75.346 15.312,-76.761 16.768,-78.113 18.283,-79.399 19.853,-80.616 21.476,-81.763 23.148,-82.835 24.866,-83.833 26.627,-84.753 28.426,-85.595 30.262,-86.355 32.130,-87.033 34.025,-87.627 35.946,-88.137 37.887,-88.560 39.845,-88.897 41.816,-89.147 43.796,-89.308 45.781,-89.382 47.768,-89.367 49.752,-89.264 51.730,-89.073 53.697,-88.794 55.649,-88.429 57.584,-87.976 59.497,-87.438 61.383,-86.816 63.241,-86.110 65.065,-85.323 66.852,-84.455 68.599,-83.509 70.302,-82.486 71.958,-81.388 73.563,-80.218 75.115,-78.978 76.611,-77.670 78.047,-76.297 79.420,-74.861 80.728,-73.365 81.968,-71.813 83.138,-70.208 84.236,-68.552 85.259,-66.849 86.205,-65.102 87.073,-63.315 87.860,-61.491 88.566,-59.633 89.188,-57.747 89.726,-55.834 90.179,-53.899 90.544,-51.947 90.823,-49.980 91.014,-48.002 91.117,-46.018 91.132,-44.031 91.058,-42.046 90.897,-40.066 90.647,-38.095 90.310,-36.137 89.887,-34.196 89.377,-32.275 88.783,-30.380 88.105,-28.512 87.345,-26.676 86.503,-24.877 85.583,-23.116 84.585,-21.398 83.513,-19.726 82.366,-18.103 81.149,-16.533 79.863,-15.018 78.511,-13.562 77.096,-12.168 75.620,-10.838 74.087,-9.574 72.499,-8.381 70.859,-7.259 69.172,-6.210 67.439,-5.238 65.665,-4.344 63.852,-3.530 62.006,-2.797 60.128,-2.147 58.224,-1.581 56.296,-1.100 54.349,-0.705 52.387,-0.397 50.412,-0.177 48.430,-0.044 46.443,0.000 44.500,0.000 42.557,0.000 40.614,0.000 38.671,0.000 36.728,0.000 34.784,0.000 32.841,0.000 30.898,0.000 28.955,0.000 27.012,0.000 25.068,0.000 23.125,0.000 21.182,0.000 19.239,0.000 17.296,0.000 15.352,0.000 13.409,0.000 11.466,0.000 9.523,0.000 7.580,0.000 5.636,0.000 3.693,0.000 1.750,0.000 1.750,0.000" fill="none" stroke="#e7ecef" stroke-width="3.5"/>
<polyline points="1.750,0.000 1.750,-1.943 1.750,-3.886 1.750,-5.830 1.750,-7.773 1.750,-9.716 1.750,-11.659 1.750,-13.602 1.750,-15.546 1.750,-17.489 1.750,-19.432 1.750,-21.375 1.750,-23.318 1.750,-25.262 1.750,-27.205 1.750,-29.148 1.750,-31.091 1.750,-33.034 1.750,-34.978 1.750,-36.921 1.750,-38.864 1.750,-40.807 1.750,-42.750 1.750,-44.693 1.794,-46.680 1.927,-48.662 2.147,-50.637 2.455,-52.599 2.850,-54.546 3.331,-56.474 3.897,-58.378 4.547,-60.256 5.280,-62.102 6.094,-63.915 6.988,-65.689 7.960,-67.422 9.009,-69.109 10.131,-70.749 11.324,-72.337 12.588,-73.870 13.918,-75.346 15.312,-76.761 16.768,-78.113 18.283,-79.399 19.853,-80.616 21.476,-81.763 23.148,-82.835 24.866,-83.833 26.627,-84.753 28.426,-85.595 30.262,-86.355 32.130,-87.033 34.025,-87.627 35.946,-88.137 37.887,-88.560 39.845,-88.897 41.816,-89.147 43.796,-89.308 45.781,-89.382 47.768,-89.367 49.752,-89.264 51.730,-89.073 53.697,-88.794 55.649,-88.429 57.584,-87.976 59.497,-87.438 61.383,-86.816 63.241,-86.110 65.065,-85.323 66.852,-84.455 68.599,-83.509 70.302,-82.486 71.958,-81.388 73.563,-80.218 75.115,-78.978 76.611,-77.670 78.047,-76.297 79.420,-74.861 80.728,-73.365 81.968,-71.813 83.138,-70.208 84.236,-68.552 85.259,-66.849 86.205,-65.102 87.073,-63.315 87.860,-61.491 88.566,-59.633 89.188,-57.747 89.726,-55.834 90.179,-53.899 90.544,-51.947 90.823,-49.980 91.014,-48.002 91.117,-46.018 91.132,-44.031 91.058,-42.046 90.897,-40.066 90.647,-38.095 90.310,-36.137 89.887,-34.196 89.377,-32.275 88.783,-30.380 88.105,-28.512 87.345,-26.676 86.503,-24.877 85.583,-23.116 84.585,-21.398 83.513,-19.726 82.366,-18.103 81.149,-16.533 79.863,-15.018 78.511,-13.562 77.096,-12.168 75.620,-10.838 74.087,-9.574 72.499,-8.381 70.859,-7.259 69.172,-6.210 67.439,-5.238 65.665,-4.344 63.852,-3.530 62.006,-2.797 60.128,-2.147 58.224,-1.581 56.296,-1.100 54.349,-0.705 52.387,-0.397 50.412,-0.177 48.430,-0.044 46.443,0.000 44.500,0.000 42.557,0.000 40.614,0.000 38.671,0.000 36.728,0.000 34.784,0.000 32.841,0.000 30.898,0.000 28.955,0.000 27.012,0.000 25.068,0.000 23.125,0.000 21.182,0.000 19.239,0.000 17.296,0.000 15.352,0.000 13.409,0.000 11.466,0.000 9.523,0.000 7.580,0.000 5.636,0.000 3.693,0.000 1.750,0.000 1.750,0.000" fill="none" stroke="#326fc0" stroke-width="0.8"/>
<circle cx="0.0" cy="0" r="1.5" fill="#b63e4a"/>
<path d="M -92.09410546422396 123.81434746845571 h 50" stroke="black" stroke-width="0.7"/>
<text x="-67.09410546422396" y="120.81434746845571" font-size="5" text-anchor="middle">50 m</text>
<text x="-80" y="-100" font-size="5" text-anchor="middle">NW</text>
<text x="80" y="-100" font-size="5" text-anchor="middle">NE</text>
<text x="0" y="160" font-size="5" text-anchor="middle">SOUTH</text>
<text x="25" y="12" font-size="5" text-anchor="middle">JUNCTION</text>
</svg>